<svg xmlns="http://www.w3.org/2000/svg" xmlns:xlink="http://www.w3.org/1999/xlink" contentStyleType="text/css" data-diagram-type="DESCRIPTION" height="875px" preserveAspectRatio="none" style="width:1377px;height:875px;background:#FFFFFF;" version="1.1" viewBox="0 0 1377 875" width="1377px" zoomAndPan="magnify"><?plantuml 1.2026.4?><defs/><g><!--cluster ztm-mcp-server--><g class="cluster" data-qualified-name="ztm-mcp-server" data-source-line="20" id="ent0003"><rect fill="none" height="531" rx="2.5" ry="2.5" style="stroke:#181818;stroke-width:1;" width="594" x="496" y="43.72"/><text fill="#000000" font-family="'Helvetica'" font-size="14" font-weight="700" lengthAdjust="spacing" textLength="124.2158" x="730.8921" y="58.7151">ztm-mcp-server</text></g><!--entity UC1--><g class="entity" data-qualified-name="ztm-mcp-server.UC1" data-source-line="21" id="ent0004"><ellipse cx="618.6372" cy="525.8014" fill="#9FE1CB" rx="79.1372" ry="33.0814" style="stroke:#0F6E56;stroke-width:0.5;"/><text fill="#000000" font-family="'Helvetica'" font-size="14" font-style="italic" lengthAdjust="spacing" textLength="47.3799" x="594.9473" y="510.0101">&#171;MVP&#187;</text><text fill="#000000" font-family="'Helvetica'" font-size="14" lengthAdjust="spacing" textLength="123.7441" x="556.7651" y="526.3069">Query departures</text><text fill="#000000" font-family="'Helvetica'" font-size="14" lengthAdjust="spacing" textLength="112.3623" x="562.456" y="542.6038">by line and stop</text></g><!--entity UC2--><g class="entity" data-qualified-name="ztm-mcp-server.UC2" data-source-line="22" id="ent0005"><ellipse cx="618.5901" cy="102.8504" fill="#9FE1CB" rx="95.5901" ry="23.6304" style="stroke:#0F6E56;stroke-width:0.5;"/><text fill="#000000" font-family="'Helvetica'" font-size="14" font-style="italic" lengthAdjust="spacing" textLength="47.3799" x="594.9001" y="95.7036">&#171;MVP&#187;</text><text fill="#000000" font-family="'Helvetica'" font-size="14" lengthAdjust="spacing" textLength="146.2822" x="545.4489" y="112.0004">List routes and stops</text></g><!--entity UC3--><g class="entity" data-qualified-name="ztm-mcp-server.UC3" data-source-line="23" id="ent0006"><ellipse cx="961.9603" cy="348.8121" fill="#9FE1CB" rx="108.4603" ry="24.0921" style="stroke:#0F6E56;stroke-width:0.5;"/><text fill="#000000" font-family="'Helvetica'" font-size="14" font-style="italic" lengthAdjust="spacing" textLength="47.3799" x="938.2703" y="341.0559">&#171;MVP&#187;</text><text fill="#000000" font-family="'Helvetica'" font-size="14" lengthAdjust="spacing" textLength="173.1748" x="875.3729" y="357.3528">Request missing context</text></g><!--entity UC4--><g class="entity" data-qualified-name="ztm-mcp-server.UC4" data-source-line="24" id="ent0007"><ellipse cx="962.1578" cy="432.5516" fill="#9FE1CB" rx="112.1578" ry="24.8316" style="stroke:#0F6E56;stroke-width:0.5;"/><text fill="#000000" font-family="'Helvetica'" font-size="14" font-style="italic" lengthAdjust="spacing" textLength="47.3799" x="938.4678" y="424.0372">&#171;MVP&#187;</text><text fill="#000000" font-family="'Helvetica'" font-size="14" lengthAdjust="spacing" textLength="186.9014" x="868.7071" y="440.3341">Reject non-Pozna&#324; queries</text></g><!--entity UC5--><g class="entity" data-qualified-name="ztm-mcp-server.UC5" data-source-line="25" id="ent0008"><ellipse cx="618.3126" cy="184.8948" fill="#9FE1CB" rx="88.8126" ry="23.6748" style="stroke:#0F6E56;stroke-width:0.5;"/><text fill="#000000" font-family="'Helvetica'" font-size="14" font-style="italic" lengthAdjust="spacing" textLength="47.3799" x="594.6226" y="177.8203">&#171;MVP&#187;</text><text fill="#000000" font-family="'Helvetica'" font-size="14" lengthAdjust="spacing" textLength="135.2832" x="550.671" y="194.1172">Explain capabilities</text></g><!--entity UC6--><g class="entity" data-qualified-name="ztm-mcp-server.UC6" data-source-line="26" id="ent0009"><ellipse cx="961.9852" cy="525.908" fill="#9FE1CB" rx="86.4852" ry="32.688" style="stroke:#0F6E56;stroke-width:0.5;"/><text fill="#000000" font-family="'Helvetica'" font-size="14" font-style="italic" lengthAdjust="spacing" textLength="69.4873" x="927.2415" y="511.7099">&#171;System&#187;</text><text fill="#000000" font-family="'Helvetica'" font-size="14" lengthAdjust="spacing" textLength="137.4844" x="893.243" y="528.0068">Refresh static GTFS</text><text fill="#000000" font-family="'Helvetica'" font-size="14" lengthAdjust="spacing" textLength="112.7588" x="905.6058" y="544.3037">(daily snapshot)</text></g><!--entity UC7--><g class="entity" data-qualified-name="ztm-mcp-server.UC7" data-source-line="27" id="ent0010"><ellipse cx="618.4861" cy="267.6659" fill="#D3D1C7" rx="106.4861" ry="23.9459" style="stroke:#5F5E5A;stroke-width:0.5;"/><text fill="#000000" font-family="'Helvetica'" font-size="14" font-style="italic" lengthAdjust="spacing" textLength="77.1709" x="579.9007" y="261.0273">&#171;PostMVP&#187;</text><text fill="#000000" font-family="'Helvetica'" font-size="14" lengthAdjust="spacing" textLength="161.0342" x="537.969" y="277.3242">Check real-time delays</text></g><!--entity UC8--><g class="entity" data-qualified-name="ztm-mcp-server.UC8" data-source-line="28" id="ent0011"><ellipse cx="618.4803" cy="350.672" fill="#D3D1C7" rx="105.9803" ry="23.952" style="stroke:#5F5E5A;stroke-width:0.5;"/><text fill="#000000" font-family="'Helvetica'" font-size="14" font-style="italic" lengthAdjust="spacing" textLength="77.1709" x="579.8949" y="344.0432">&#171;PostMVP&#187;</text><text fill="#000000" font-family="'Helvetica'" font-size="14" lengthAdjust="spacing" textLength="160.2002" x="538.3802" y="360.3401">Track vehicle positions</text></g><!--entity UC9--><g class="entity" data-qualified-name="ztm-mcp-server.UC9" data-source-line="29" id="ent0012"><ellipse cx="618.6216" cy="433.9531" fill="#D3D1C7" rx="89.1216" ry="24.2331" style="stroke:#5F5E5A;stroke-width:0.5;"/><text fill="#000000" font-family="'Helvetica'" font-size="14" font-style="italic" lengthAdjust="spacing" textLength="77.1709" x="580.0362" y="427.7672">&#171;PostMVP&#187;</text><text fill="#000000" font-family="'Helvetica'" font-size="14" lengthAdjust="spacing" textLength="132.2002" x="552.5215" y="444.0641">View service alerts</text></g><!--entity user--><g class="entity" data-qualified-name="user" data-source-line="17" id="ent0001"><ellipse cx="43.1738" cy="328.72" fill="#F1F1F1" rx="16" ry="16" style="stroke:#181818;stroke-width:0.5;"/><path d="M43.1738,348.72 C47.1738,348.72 50.1738,348.72 54.1738,344.72 C62.1738,344.72 70.1738,352.72 70.1738,360.72 L70.1738,364.72 C70.1738,368.72 66.1738,372.72 62.1738,372.72 L24.1738,372.72 C20.1738,372.72 16.1738,368.72 16.1738,364.72 L16.1738,360.72 C16.1738,352.72 24.1738,344.72 32.1738,344.72 C36.1738,348.72 39.1738,348.72 43.1738,348.72" fill="#F1F1F1" style="stroke:#181818;stroke-width:0.5;"/><text fill="#000000" font-family="'Helvetica'" font-size="14" lengthAdjust="spacing" textLength="74.3477" x="6" y="386.2151">Commuter</text></g><!--entity agent--><g class="entity" data-qualified-name="agent" data-source-line="18" id="ent0002"><ellipse cx="351.1982" cy="320.22" fill="#F1F1F1" rx="16" ry="16" style="stroke:#181818;stroke-width:0.5;"/><path d="M351.1982,340.22 C355.1982,340.22 358.1982,340.22 362.1982,336.22 C370.1982,336.22 378.1982,344.22 378.1982,352.22 L378.1982,356.22 C378.1982,360.22 374.1982,364.22 370.1982,364.22 L332.1982,364.22 C328.1982,364.22 324.1982,360.22 324.1982,356.22 L324.1982,352.22 C324.1982,344.22 332.1982,336.22 340.1982,336.22 C344.1982,340.22 347.1982,340.22 351.1982,340.22" fill="#F1F1F1" style="stroke:#181818;stroke-width:0.5;"/><text fill="#000000" font-family="'Helvetica'" font-size="14" lengthAdjust="spacing" textLength="58.5977" x="253" y="377.7151">AI agent</text><text fill="#000000" font-family="'Helvetica'" font-size="14" lengthAdjust="spacing" textLength="196.3965" x="253" y="394.012">(Claude / ChatGPT / Copilot)</text></g><!--entity ztm--><g class="entity" data-qualified-name="ztm" data-source-line="32" id="ent0013"><ellipse cx="1311.9346" cy="189.5169" fill="#F1F1F1" rx="16" ry="16" style="stroke:#181818;stroke-width:0.5;"/><path d="M1311.9346,209.5169 C1315.9346,209.5169 1318.9346,209.5169 1322.9346,205.5169 C1330.9346,205.5169 1338.9346,213.5169 1338.9346,221.5169 L1338.9346,225.5169 C1338.9346,229.5169 1334.9346,233.5169 1330.9346,233.5169 L1292.9346,233.5169 C1288.9346,233.5169 1284.9346,229.5169 1284.9346,225.5169 L1284.9346,221.5169 C1284.9346,213.5169 1292.9346,205.5169 1300.9346,205.5169 C1304.9346,209.5169 1307.9346,209.5169 1311.9346,209.5169" fill="#F1F1F1" style="stroke:#181818;stroke-width:0.5;"/><text fill="#000000" font-family="'Helvetica'" font-size="14" lengthAdjust="spacing" textLength="85.3535" x="1261" y="247.012">ZTM Pozna&#324;</text><text fill="#000000" font-family="'Helvetica'" font-size="14" lengthAdjust="spacing" textLength="101.8691" x="1261" y="263.3089">Open Data API</text><text fill="#000000" font-family="'Helvetica'" font-size="14" font-style="italic" lengthAdjust="spacing" textLength="75.3799" x="1274.2446" y="169.7151">&#171;external&#187;</text></g><!--entity sched--><g class="entity" data-qualified-name="sched" data-source-line="33" id="ent0014"><ellipse cx="618.6851" cy="697.5169" fill="#F1F1F1" rx="16" ry="16" style="stroke:#181818;stroke-width:0.5;"/><path d="M618.6851,717.5169 C622.6851,717.5169 625.6851,717.5169 629.6851,713.5169 C637.6851,713.5169 645.6851,721.5169 645.6851,729.5169 L645.6851,733.5169 C645.6851,737.5169 641.6851,741.5169 637.6851,741.5169 L599.6851,741.5169 C595.6851,741.5169 591.6851,737.5169 591.6851,733.5169 L591.6851,729.5169 C591.6851,721.5169 599.6851,713.5169 607.6851,713.5169 C611.6851,717.5169 614.6851,717.5169 618.6851,717.5169" fill="#F1F1F1" style="stroke:#181818;stroke-width:0.5;"/><text fill="#000000" font-family="'Helvetica'" font-size="14" lengthAdjust="spacing" textLength="108.3701" x="564.5" y="755.012">Daily scheduler</text><text fill="#000000" font-family="'Helvetica'" font-size="14" lengthAdjust="spacing" textLength="51.2695" x="564.5" y="771.3089">(06:00)</text><text fill="#000000" font-family="'Helvetica'" font-size="14" font-style="italic" lengthAdjust="spacing" textLength="67.8945" x="584.7378" y="677.7151">&#171;system&#187;</text></g><!--link user to agent--><g class="link" data-entity-1="ent0001" data-entity-2="ent0002" data-link-type="association" data-source-line="36" id="lnk15"><path d="M80,350.72 C122.18,350.72 193.8,350.72 252.67,350.72" fill="none" id="user-agent" style="stroke:#181818;stroke-width:1;"/><text fill="#000000" font-family="'Helvetica'" font-size="13" lengthAdjust="spacing" textLength="111.1221" x="111" y="346.7869">natural language</text></g><!--link agent to UC1--><g class="link" data-entity-1="ent0002" data-entity-2="ent0004" data-link-type="dependency" data-source-line="39" id="lnk16"><path d="M395.46,398 C420.62,423.3 453.97,453.51 488,474.72 C508.51,487.5 528.0622,496.3408 550.0022,504.4808" fill="none" id="agent-to-UC1" style="stroke:#181818;stroke-width:1;"/><polygon fill="#181818" points="554.69,506.22,547.6434,499.3392,550.0022,504.4808,544.8607,506.8396,554.69,506.22" style="stroke:#181818;stroke-width:1;stroke-linejoin:miter;stroke-miterlimit:10;"/></g><!--link agent to UC2--><g class="link" data-entity-1="ent0002" data-entity-2="ent0005" data-link-type="dependency" data-source-line="40" id="lnk17"><path d="M371.48,303.62 C393.24,256.61 432.81,185.51 488,143.72 C503.89,131.69 518.6372,124.6616 537.6372,118.5916" fill="none" id="agent-to-UC2" style="stroke:#181818;stroke-width:1;"/><polygon fill="#181818" points="542.4,117.07,532.6096,115.9986,537.6372,118.5916,535.0442,123.6192,542.4,117.07" style="stroke:#181818;stroke-width:1;stroke-linejoin:miter;stroke-miterlimit:10;"/></g><!--link agent to UC4--><g class="link" data-entity-1="ent0002" data-entity-2="ent0007" data-link-type="dependency" data-source-line="41" id="lnk18"><path d="M365.17,397.89 C383.06,451.91 420.81,537.82 488,575.72 C579.75,627.47 621.94,597.49 725,575.72 C770.17,566.18 786.38,565.35 820,533.72 C841.14,513.83 828.4,495.11 850,475.72 C861.23,465.64 870.486,459.7935 884.546,453.7535" fill="none" id="agent-to-UC4" style="stroke:#181818;stroke-width:1;"/><polygon fill="#181818" points="889.14,451.78,879.2919,451.6571,884.546,453.7535,882.4496,459.0076,889.14,451.78" style="stroke:#181818;stroke-width:1;stroke-linejoin:miter;stroke-miterlimit:10;"/></g><!--link agent to UC5--><g class="link" data-entity-1="ent0002" data-entity-2="ent0008" data-link-type="dependency" data-source-line="42" id="lnk19"><path d="M393.36,303.65 C418.48,277.54 452.48,246.29 488,225.72 C507.08,214.67 524.7133,207.665 545.4833,201.395" fill="none" id="agent-to-UC5" style="stroke:#181818;stroke-width:1;"/><polygon fill="#181818" points="550.27,199.95,540.498,198.7216,545.4833,201.395,542.81,206.3803,550.27,199.95" style="stroke:#181818;stroke-width:1;stroke-linejoin:miter;stroke-miterlimit:10;"/></g><!--link agent to UC7--><g class="link" data-entity-1="ent0002" data-entity-2="ent0010" data-link-type="dependency" data-source-line="43" id="lnk20"><path d="M449.35,320.29 C484.73,309.23 518.9376,298.5314 550.4576,288.6814" fill="none" id="agent-to-UC7" style="stroke:#181818;stroke-width:1;"/><polygon fill="#181818" points="555.23,287.19,545.4466,286.0566,550.4576,288.6814,547.8328,293.6924,555.23,287.19" style="stroke:#181818;stroke-width:1;stroke-linejoin:miter;stroke-miterlimit:10;"/></g><!--link agent to UC8--><g class="link" data-entity-1="ent0002" data-entity-2="ent0011" data-link-type="dependency" data-source-line="44" id="lnk21"><path d="M449.35,350.72 C469.78,350.72 486.41,350.72 507.11,350.72" fill="none" id="agent-to-UC8" style="stroke:#181818;stroke-width:1;"/><polygon fill="#181818" points="512.11,350.72,503.11,346.72,507.11,350.72,503.11,354.72,512.11,350.72" style="stroke:#181818;stroke-width:1;stroke-linejoin:miter;stroke-miterlimit:10;"/></g><!--link agent to UC9--><g class="link" data-entity-1="ent0002" data-entity-2="ent0012" data-link-type="dependency" data-source-line="45" id="lnk22"><path d="M449.35,381.15 C486.35,392.72 522.5379,404.0275 554.7679,414.1075" fill="none" id="agent-to-UC9" style="stroke:#181818;stroke-width:1;"/><polygon fill="#181818" points="559.54,415.6,552.1443,409.0959,554.7679,414.1075,549.7563,416.7312,559.54,415.6" style="stroke:#181818;stroke-width:1;stroke-linejoin:miter;stroke-miterlimit:10;"/></g><!--link UC1 to UC3--><g class="link" data-entity-1="ent0004" data-entity-2="ent0006" data-link-type="dependency" data-source-line="48" id="lnk23"><path d="M674.67,502.42 C691.34,494.49 709.37,485.01 725,474.72 C739.74,465.02 740.79,459.18 755,448.72 C795.02,419.24 805.35,411.55 850,389.72 C865.96,381.91 879.1182,376.4284 895.7582,370.2984" fill="none" id="UC1-to-UC3" style="stroke:#181818;stroke-width:1;stroke-dasharray:7,7;"/><polygon fill="#181818" points="900.45,368.57,890.6221,367.9277,895.7582,370.2984,893.3875,375.4345,900.45,368.57" style="stroke:#181818;stroke-width:1;stroke-linejoin:miter;stroke-miterlimit:10;"/><text fill="#000000" font-family="'Helvetica'" font-size="13" lengthAdjust="spacing" textLength="63.0068" x="756" y="401.7869">&#171;include&#187;</text></g><!--link UC1 to UC4--><g class="link" data-entity-1="ent0004" data-entity-2="ent0007" data-link-type="dependency" data-source-line="49" id="lnk24"><path d="M685.34,507.79 C744.17,491.77 825.2855,469.6732 885.5355,453.2732" fill="none" id="UC1-to-UC4" style="stroke:#181818;stroke-width:1;stroke-dasharray:7,7;"/><polygon fill="#181818" points="890.36,451.96,880.6254,450.4642,885.5355,453.2732,882.7265,458.1834,890.36,451.96" style="stroke:#181818;stroke-width:1;stroke-linejoin:miter;stroke-miterlimit:10;"/><text fill="#000000" font-family="'Helvetica'" font-size="13" lengthAdjust="spacing" textLength="63.0068" x="756" y="469.7869">&#171;include&#187;</text></g><!--link UC1 to UC6--><g class="link" data-entity-1="ent0004" data-entity-2="ent0009" data-link-type="dependency" data-source-line="50" id="lnk25"><path d="M697.85,525.72 C750.82,525.72 815.77,525.72 870.23,525.72" fill="none" id="UC1-to-UC6" style="stroke:#181818;stroke-width:1;stroke-dasharray:7,7;"/><polygon fill="#181818" points="875.23,525.72,866.23,521.72,870.23,525.72,866.23,529.72,875.23,525.72" style="stroke:#181818;stroke-width:1;stroke-linejoin:miter;stroke-miterlimit:10;"/><text fill="#000000" font-family="'Helvetica'" font-size="13" lengthAdjust="spacing" textLength="63.0068" x="756" y="521.7869">&#171;include&#187;</text></g><!--link sched to UC6--><g class="link" data-entity-1="ent0014" data-entity-2="ent0009" data-link-type="dependency" data-source-line="53" id="lnk26"><path d="M672.93,702.53 C714.47,688.08 772.78,665.37 820,637.72 C860.2,614.18 897.6345,583.4236 925.0245,559.0536" fill="none" id="sched-to-UC6" style="stroke:#181818;stroke-width:1;"/><polygon fill="#181818" points="928.76,555.73,919.3773,558.7241,925.0245,559.0536,924.695,564.7008,928.76,555.73" style="stroke:#181818;stroke-width:1;stroke-linejoin:miter;stroke-miterlimit:10;"/></g><!--link UC6 to ztm--><g class="link" data-entity-1="ent0009" data-entity-2="ent0013" data-link-type="dependency" data-source-line="54" id="lnk27"><path d="M1033.13,507.12 C1055.14,499.28 1078.71,488.66 1098,474.72 C1176.35,418.12 1239.2939,329.8961 1276.1939,271.0461" fill="none" id="UC6-to-ztm" style="stroke:#181818;stroke-width:1;"/><polygon fill="#181818" points="1278.85,266.81,1270.68,272.3102,1276.1939,271.0461,1277.4579,276.56,1278.85,266.81" style="stroke:#181818;stroke-width:1;stroke-linejoin:miter;stroke-miterlimit:10;"/><text fill="#000000" font-family="'Helvetica'" font-size="13" lengthAdjust="spacing" textLength="123.5571" x="1107" y="333.7869">download GTFS zip</text></g><!--link UC7 to ztm--><g class="link" data-entity-1="ent0010" data-entity-2="ent0013" data-link-type="dependency" data-source-line="55" id="lnk28"><path d="M718.94,259.67 C868.81,247.53 1142.1163,225.3935 1255.7363,216.1935" fill="none" id="UC7-to-ztm" style="stroke:#181818;stroke-width:1;"/><polygon fill="#181818" points="1260.72,215.79,1251.4265,212.5294,1255.7363,216.1935,1252.0722,220.5033,1260.72,215.79" style="stroke:#181818;stroke-width:1;stroke-linejoin:miter;stroke-miterlimit:10;"/><text fill="#000000" font-family="'Helvetica'" font-size="13" lengthAdjust="spacing" textLength="129.5811" x="897.5" y="225.7869">poll trip_updates.pb</text></g><!--link UC8 to ztm--><g class="link" data-entity-1="ent0011" data-entity-2="ent0013" data-link-type="dependency" data-source-line="56" id="lnk29"><path d="M691.83,333.35 C704.43,327.39 716.27,319.41 725,308.72 C772.7,250.31 697.15,190.1 755,141.72 C917.28,6 1032.96,67.31 1231,141.72 C1241.54,145.68 1247.6005,148.7293 1256.8105,155.6393" fill="none" id="UC8-to-ztm" style="stroke:#181818;stroke-width:1;"/><polygon fill="#181818" points="1260.81,158.64,1256.0115,150.0392,1256.8105,155.6393,1251.2104,156.4383,1260.81,158.64" style="stroke:#181818;stroke-width:1;stroke-linejoin:miter;stroke-miterlimit:10;"/><text fill="#000000" font-family="'Helvetica'" font-size="13" lengthAdjust="spacing" textLength="159.2627" x="882.5" y="57.7869">poll vehicle_positions.pb</text></g><!--link UC9 to ztm--><g class="link" data-entity-1="ent0012" data-entity-2="ent0013" data-link-type="dependency" data-source-line="57" id="lnk30"><path d="M680.63,416.49 C696.12,410.29 712.02,402.17 725,391.72 C802.3,329.5 763.2,254.8 850,206.72 C982.68,133.22 1166.7119,169.9438 1255.8819,194.6738" fill="none" id="UC9-to-ztm" style="stroke:#181818;stroke-width:1;"/><polygon fill="#181818" points="1260.7,196.01,1253.0963,189.7503,1255.8819,194.6738,1250.9584,197.4593,1260.7,196.01" style="stroke:#181818;stroke-width:1;stroke-linejoin:miter;stroke-miterlimit:10;"/><text fill="#000000" font-family="'Helvetica'" font-size="13" lengthAdjust="spacing" textLength="83.7954" x="920.5" y="160.7869">poll feeds.pb</text></g><g class="legend" data-source-line="59"><rect fill="#DDDDDD" height="62.8906" rx="7.5" ry="7.5" style="stroke:#000000;stroke-width:1;" width="145.4678" x="1213.4014" y="793.8089"/><text fill="#000000" font-family="'Helvetica'" font-size="14" font-weight="700" lengthAdjust="spacing" textLength="41.2139" x="1223.2754" y="813.804">Color</text><text fill="#000000" font-family="'Helvetica'" font-size="14" font-weight="700" lengthAdjust="spacing" textLength="67.6279" x="1274.2373" y="813.804">Meaning</text><rect fill="#9FE1CB" height="16.2969" style="stroke:none;stroke-width:1;" width="50.9619" x="1218.4014" y="817.1057"/><text fill="#000000" font-family="'Helvetica'" font-size="14" lengthAdjust="spacing" textLength="4.4502" x="1218.4014" y="830.1009">&#160;</text><text fill="#000000" font-family="'Helvetica'" font-size="14" lengthAdjust="spacing" textLength="75.6055" x="1273.8135" y="830.1009">MVP scope</text><rect fill="#D3D1C7" height="16.2969" style="stroke:none;stroke-width:1;" width="50.9619" x="1218.4014" y="833.4026"/><text fill="#000000" font-family="'Helvetica'" font-size="14" lengthAdjust="spacing" textLength="4.4502" x="1218.4014" y="846.3977">&#160;</text><text fill="#000000" font-family="'Helvetica'" font-size="14" lengthAdjust="spacing" textLength="64.9414" x="1273.8135" y="846.3977">Post-MVP</text><line style="stroke:#000000;stroke-width:1;" x1="1218.4014" x2="1353.8691" y1="800.8089" y2="800.8089"/><line style="stroke:#000000;stroke-width:1;" x1="1218.4014" x2="1353.8691" y1="817.1057" y2="817.1057"/><line style="stroke:#000000;stroke-width:1;" x1="1218.4014" x2="1353.8691" y1="833.4026" y2="833.4026"/><line style="stroke:#000000;stroke-width:1;" x1="1218.4014" x2="1353.8691" y1="849.6995" y2="849.6995"/><line style="stroke:#000000;stroke-width:1;" x1="1218.4014" x2="1218.4014" y1="800.8089" y2="849.6995"/><line style="stroke:#000000;stroke-width:1;" x1="1269.3633" x2="1269.3633" y1="800.8089" y2="849.6995"/><line style="stroke:#000000;stroke-width:1;" x1="1353.8691" x2="1353.8691" y1="800.8089" y2="849.6995"/></g><?plantuml-src TLLHKziu47xNhzXn7meF3g6GK39SPi2GqfdIvWxemmqp6SNUn2gov4eoD9Hxkxzs_-jMiXES4FAGyNhtMws-_NRz7cujGihfBnDyRdW1Cst0vGX_trp1M3yf_j-_S9MCmQ9vGDDXJEBCWTDWn3nt13EOEg4Li_T2bTodA7bwp-TuxHOImRkvcaji1V3KQLEx-IDQNRITDkUPVXHg3ZCkRTkJuOnNqesqSbzvWH1Tedn09r8UjQ8gY-52lnd06LKoDxfIMQAbDYSdLz_7mo64txlZqSL-SkQZjCdGl8u8KTrH_wBNtvPhhArhej-T7vpl9qURkLeH8LTlrBledMxBTRsm3eiG-4PThOXsNVym5jY4AD55KJaqqR9qRZqNPka__GpK5ENkr4uYUPKXx46IS_TfVEEVT2caThkHXuKunbQjW-Z95N6Hbd6jWYYGkoGw-hD2iw3k4F-kCcZlr7G1KYZghih0Ebr6TJctoJuq3BVnNuHrG6muj2k4ZM3Z5_0Vjk7_mfyLKef2MEjrav90y9UBjk0FjkD_q4r1QHKl5Ky9ZS3r8aA2msq9BdwLaWj5WrJogP32RK9VyBtj1So8jfmkpadDyEbcT4rTohYG2x2AbpPVTkOswSEB5jevaXpJUvesBcCdQ3Wob7pngegGuWXQqcpdk36aItZ0NAJKz59RuIVRRYFourivlWjy3Cj2fDH_YSPjeQBESRoMuqN9hTLpfxwLgE2SEmwduy-10z8Y498wZ4PnIT06TruJbkQOLNGmKTZj3xfTOix3mdl2sILvx3rSLWLNS18FQyd3ZjzyUNYfa8HEUwuYc0qRiTP-i_7aOfVvwO8uRh03K9papoL86fgANleJJeClvLBQi4QTrjAo6X7JkJGIQzQ7DUjmpUgjMKThriSrwzWVVOOvVn14Z24sBCoCfXMgKxlNFOWDZGpTeo28xHGPyvFPwGp3X0o89A5IIIk2M7hn7BxfwMzu_E6h3KUQhDNzGqzXnvfqhr67tQDEJXgZKou6Nl_6JOBk9mrgbzLzg-_LP_wmO7WL3EW-ZqfgdeMPWITHCY_lLa2ffGHdH3cfoepJXkcKK-RbkndJg7woKdqTUFmgS8QO1ITz2Odo3ARQEQ8sV0zf4fx_WB2o_SCLSkKtqhD_3oVDQX_ICscU5AbBNFdgJuZt-Pc8VS0pe_prAUn_?></g></svg>